<svg width="560" height="356" version="1.1" xmlns="http://www.w3.org/2000/svg" desc="Created with imagetracer.js version 1.2.5"><path fill="rgb(0,0,0)" stroke="rgb(0,0,0)" stroke-width="0" opacity="1" d="M 513.5 0 L 516.5 1 L 560 36.5 L 560 93.5 L 555.5 98 L 515.5 130 L 511.5 130 L 459.5 118 L 457 115.5 L 433 64.5 L 458.5 13 L 513.5 0 Z "></path><path fill="rgb(0,0,0)" stroke="rgb(0,0,0)" stroke-width="0" opacity="1" d="M 328.5 6 L 377.5 6 L 412 40.5 L 412 89.5 L 377.5 124 L 328.5 124 L 294 89.5 L 294 40.5 L 328.5 6 Z "></path><path fill="rgb(0,0,0)" stroke="rgb(0,0,0)" stroke-width="0" opacity="1" d="M 180.5 7 L 183.5 7 L 242.5 27 L 249 28 L 249 101.5 L 246.5 102 L 180 124 L 138 64.5 L 180.5 7 Z "></path><path fill="rgb(0,0,0)" stroke="rgb(0,0,0)" stroke-width="0" opacity="1" d="M 49.5 12 L 63.5 13 L 70.5 15 L 89 26 L 89 28 Q 91.7 26.9 91 29.5 Q 100.4 37.6 104 51.5 L 105 56.5 L 105 73.5 Q 100.8 93.8 87.5 105 Q 79.5 112.5 67.5 116 L 58.5 118 L 47.5 118 L 34.5 115 Q 22.3 110.2 14 101.5 Q 4.8 92.2 1 77.5 L 0 58.5 Q 4 33.5 21.5 22 L 34.5 15 L 49.5 12 Z "></path><path fill="rgb(0,0,0)" stroke="rgb(0,0,0)" stroke-width="0" opacity="1" d="M 469 214 L 547 214 L 547 356 L 469 356 L 469 214 Z "></path><path fill="rgb(0,0,0)" stroke="rgb(0,0,0)" stroke-width="0" opacity="1" d="M 257.5 223 L 259 223.5 L 259 347 L 151 284.5 L 257.5 223 Z "></path><path fill="rgb(0,0,0)" stroke="rgb(0,0,0)" stroke-width="0" opacity="1" d="M 352.5 223 L 407 254.5 L 407 315.5 L 405.5 317 L 352.5 347 L 299 315.5 L 299 254.5 L 301.5 252 L 352.5 223 Z "></path><path fill="rgb(0,0,0)" stroke="rgb(0,0,0)" stroke-width="0" opacity="1" d="M 10 237 L 105 237 L 105 333 L 10 333 L 10 237 Z "></path><path fill="rgb(254,254,254)" stroke="rgb(254,254,254)" stroke-width="0" opacity="1" d="M 0 0 L 513 0.5 L 481.5 7 L 468.5 11 L 464.5 11 L 457 14.5 L 433 65.5 L 457 115.5 L 459.5 118 L 515.5 130 L 559.5 94 L 560 356 L 547.5 356 L 547 355.5 L 547 214 L 469 214 L 469 355.5 L 468.5 356 L 0 356 L 0.5 72 L 4 86.5 L 16.5 104 L 34.5 115 L 47.5 118 L 58.5 118 Q 81.2 114.2 93 99.5 Q 100.4 90.9 104 78.5 L 105 73.5 L 105 56.5 L 102 45.5 L 91 28 L 89 28 Q 90.1 25.3 87.5 26 Q 75.5 12 49.5 12 L 34.5 15 L 24.5 20 L 10 33.5 Q 2.3 42.8 0.5 58 L 0 0 Z M 329 6 L 294 41 L 294 90 L 329 124 L 378 124 L 412 90 L 412 41 L 378 6 L 329 6 Z M 181 7 L 138 65 L 180 124 L 247 102 L 249 102 L 249 28 L 243 27 L 184 7 L 181 7 Z M 258 223 L 151 285 L 259 347 L 259 224 L 258 223 Z M 353 223 L 302 252 L 299 255 L 299 316 L 353 347 L 406 317 L 407 316 L 407 255 L 353 223 Z M 10 237 L 10 333 L 105 333 L 105 237 L 10 237 Z "></path><path fill="rgb(254,254,254)" stroke="rgb(254,254,254)" stroke-width="0" opacity="1" d="M 515.5 0 L 560 0 L 560 35.5 L 555.5 32 L 515.5 1 L 515.5 0 Z "></path></svg>