<svg width="560" height="356" version="1.1" xmlns="http://www.w3.org/2000/svg" desc="Created with imagetracer.js version 1.2.5"><path fill="rgb(0,0,0)" stroke="rgb(0,0,0)" stroke-width="0" opacity="1" d="M 514.5 0 L 560 36.5 L 560 93.5 L 556.5 97 L 516.5 129 L 513.5 130 L 458 117 L 438 73.5 L 434 67.5 L 434 63.5 L 458 13 L 514.5 0 Z "></path><path fill="rgb(0,0,0)" stroke="rgb(0,0,0)" stroke-width="0" opacity="1" d="M 328.5 6 L 377.5 6 L 412 40.5 L 412 89.5 L 377.5 124 L 328.5 124 L 294 89.5 L 294 40.5 L 328.5 6 Z "></path><path fill="rgb(0,0,0)" stroke="rgb(0,0,0)" stroke-width="0" opacity="1" d="M 180.5 7 L 232.5 23 L 249 29.5 L 249 100.5 L 247.5 102 L 180.5 123 L 141 69.5 L 139 66.5 L 139 63.5 L 180.5 7 Z "></path><path fill="rgb(0,0,0)" stroke="rgb(0,0,0)" stroke-width="0" opacity="1" d="M 44.5 13 L 61.5 13 L 72.5 16 L 84.5 23 L 94 32.5 L 103 49.5 L 105 57.5 L 105 72.5 L 101 86.5 L 91 102 L 80.5 110 L 72.5 114 L 54.5 118 L 51.5 117 L 49.5 117 L 38.5 116 L 26.5 111 L 11 97.5 L 2 80.5 L 0 69.5 L 0 61.5 L 1 60.5 L 2 49.5 L 7 38.5 L 19.5 24 L 28.5 18 L 44.5 13 Z "></path><path fill="rgb(0,0,0)" stroke="rgb(0,0,0)" stroke-width="0" opacity="1" d="M 469 214 L 547 214 L 547 356 L 469 356 L 469 214 Z "></path><path fill="rgb(0,0,0)" stroke="rgb(0,0,0)" stroke-width="0" opacity="1" d="M 257.5 223 L 259 223.5 L 259 347 L 152 286 L 152 284 L 153.5 284 L 257.5 223 Z "></path><path fill="rgb(0,0,0)" stroke="rgb(0,0,0)" stroke-width="0" opacity="1" d="M 352.5 223 L 407 254.5 L 406 255.5 L 406 314.5 L 407 315.5 L 405.5 317 L 352.5 347 L 300 315.5 L 300 253.5 L 301.5 253 L 352.5 223 Z "></path><path fill="rgb(0,0,0)" stroke="rgb(0,0,0)" stroke-width="0" opacity="1" d="M 10.5 237 L 11.5 238 L 103.5 238 L 105 237.5 L 104.5 333 L 103.5 332 L 10 332 L 10.5 237 Z "></path><path fill="rgb(85,85,85)" stroke="rgb(85,85,85)" stroke-width="0" opacity="1" d="M 521.5 5 L 522.5 7 L 521.5 5 Z "></path><path fill="rgb(85,85,85)" stroke="rgb(85,85,85)" stroke-width="0" opacity="1" d="M 49.5 12 L 56 12.5 L 49.5 13 L 49.5 12 Z "></path><path fill="rgb(85,85,85)" stroke="rgb(85,85,85)" stroke-width="0" opacity="1" d="M 41.5 13 L 44 13.5 L 41.5 14 L 41.5 13 Z "></path><path fill="rgb(85,85,85)" stroke="rgb(85,85,85)" stroke-width="0" opacity="1" d="M 170.5 20 L 169.5 22 L 170.5 20 Z "></path><path fill="rgb(85,85,85)" stroke="rgb(85,85,85)" stroke-width="0" opacity="1" d="M 21.5 22 L 20.5 24 L 21.5 22 Z "></path><path fill="rgb(85,85,85)" stroke="rgb(85,85,85)" stroke-width="0" opacity="1" d="M 545.5 24 L 546.5 26 L 545.5 24 Z "></path><path fill="rgb(85,85,85)" stroke="rgb(85,85,85)" stroke-width="0" opacity="1" d="M 165.5 27 L 164.5 29 L 165.5 27 Z "></path><path fill="rgb(85,85,85)" stroke="rgb(85,85,85)" stroke-width="0" opacity="1" d="M 11.5 32 L 10.5 34 L 11.5 32 Z "></path><path fill="rgb(85,85,85)" stroke="rgb(85,85,85)" stroke-width="0" opacity="1" d="M 555.5 32 L 556.5 34 L 555.5 32 Z "></path><path fill="rgb(85,85,85)" stroke="rgb(85,85,85)" stroke-width="0" opacity="1" d="M 94.5 33 L 95.5 35 L 94.5 33 Z "></path><path fill="rgb(85,85,85)" stroke="rgb(85,85,85)" stroke-width="0" opacity="1" d="M 160.5 34 L 159.5 36 L 160.5 34 Z "></path><path fill="rgb(85,85,85)" stroke="rgb(85,85,85)" stroke-width="0" opacity="1" d="M 157.5 38 L 156.5 40 L 157.5 38 Z "></path><path fill="rgb(85,85,85)" stroke="rgb(85,85,85)" stroke-width="0" opacity="1" d="M 0.5 58 L 1 60.5 L 0 60.5 L 0.5 58 Z "></path><path fill="rgb(85,85,85)" stroke="rgb(85,85,85)" stroke-width="0" opacity="1" d="M 161.5 97 L 162.5 99 L 161.5 97 Z "></path><path fill="rgb(85,85,85)" stroke="rgb(85,85,85)" stroke-width="0" opacity="1" d="M 92.5 99 L 91.5 101 L 92.5 99 Z "></path><path fill="rgb(85,85,85)" stroke="rgb(85,85,85)" stroke-width="0" opacity="1" d="M 14.5 101 L 16.5 104 L 14.5 101 Z "></path><path fill="rgb(85,85,85)" stroke="rgb(85,85,85)" stroke-width="0" opacity="1" d="M 550.5 101 L 549.5 103 L 550.5 101 Z "></path><path fill="rgb(85,85,85)" stroke="rgb(85,85,85)" stroke-width="0" opacity="1" d="M 89.5 102 L 87.5 105 L 89.5 102 Z "></path><path fill="rgb(85,85,85)" stroke="rgb(85,85,85)" stroke-width="0" opacity="1" d="M 166.5 104 L 167.5 106 L 166.5 104 Z "></path><path fill="rgb(85,85,85)" stroke="rgb(85,85,85)" stroke-width="0" opacity="1" d="M 541.5 108 L 540.5 110 L 541.5 108 Z "></path><path fill="rgb(85,85,85)" stroke="rgb(85,85,85)" stroke-width="0" opacity="1" d="M 46.5 117 L 50 117.5 L 46.5 118 L 46.5 117 Z "></path><path fill="rgb(85,85,85)" stroke="rgb(85,85,85)" stroke-width="0" opacity="1" d="M 51.5 117 L 54 117.5 L 51.5 118 L 51.5 117 Z "></path><path fill="rgb(85,85,85)" stroke="rgb(85,85,85)" stroke-width="0" opacity="1" d="M 55.5 117 L 59 117.5 L 55.5 118 L 55.5 117 Z "></path><path fill="rgb(85,85,85)" stroke="rgb(85,85,85)" stroke-width="0" opacity="1" d="M 521.5 124 L 520.5 126 L 521.5 124 Z "></path><path fill="rgb(85,85,85)" stroke="rgb(85,85,85)" stroke-width="0" opacity="1" d="M 11.5 237 L 104 237.5 L 11.5 238 L 11.5 237 Z "></path><path fill="rgb(85,85,85)" stroke="rgb(85,85,85)" stroke-width="0" opacity="1" d="M 299.5 254 L 300 315.5 L 301 316.5 L 299 315.5 L 299.5 254 Z "></path><path fill="rgb(85,85,85)" stroke="rgb(85,85,85)" stroke-width="0" opacity="1" d="M 406.5 255 L 407 314.5 L 406 314.5 L 406.5 255 Z "></path><path fill="rgb(85,85,85)" stroke="rgb(85,85,85)" stroke-width="0" opacity="1" d="M 10.5 332 L 104 332.5 L 10.5 333 L 10.5 332 Z "></path><path fill="rgb(170,170,170)" stroke="rgb(170,170,170)" stroke-width="0" opacity="1" d="M 519.5 3 L 520.5 5 L 519.5 3 Z "></path><path fill="rgb(170,170,170)" stroke="rgb(170,170,170)" stroke-width="0" opacity="1" d="M 329.5 5 L 377 5.5 L 329.5 6 L 329.5 5 Z "></path><path fill="rgb(170,170,170)" stroke="rgb(170,170,170)" stroke-width="0" opacity="1" d="M 180.5 6 L 182 6.5 L 179.5 8 L 180.5 6 Z "></path><path fill="rgb(170,170,170)" stroke="rgb(170,170,170)" stroke-width="0" opacity="1" d="M 379.5 7 L 382.5 11 L 379.5 7 Z "></path><path fill="rgb(170,170,170)" stroke="rgb(170,170,170)" stroke-width="0" opacity="1" d="M 524.5 7 L 525.5 9 L 524.5 7 Z "></path><path fill="rgb(170,170,170)" stroke="rgb(170,170,170)" stroke-width="0" opacity="1" d="M 177.5 10 L 176.5 12 L 177.5 10 Z "></path><path fill="rgb(170,170,170)" stroke="rgb(170,170,170)" stroke-width="0" opacity="1" d="M 529.5 11 L 530.5 13 L 529.5 11 Z "></path><path fill="rgb(170,170,170)" stroke="rgb(170,170,170)" stroke-width="0" opacity="1" d="M 44.5 12 L 49 12.5 L 44.5 13 L 44.5 12 Z "></path><path fill="rgb(170,170,170)" stroke="rgb(170,170,170)" stroke-width="0" opacity="1" d="M 56.5 12 L 61 12.5 L 56.5 13 L 56.5 12 Z "></path><path fill="rgb(170,170,170)" stroke="rgb(170,170,170)" stroke-width="0" opacity="1" d="M 534.5 15 L 535.5 17 L 534.5 15 Z "></path><path fill="rgb(170,170,170)" stroke="rgb(170,170,170)" stroke-width="0" opacity="1" d="M 388.5 16 L 389.5 18 L 388.5 16 Z "></path><path fill="rgb(170,170,170)" stroke="rgb(170,170,170)" stroke-width="0" opacity="1" d="M 539.5 19 L 540.5 21 L 539.5 19 Z "></path><path fill="rgb(170,170,170)" stroke="rgb(170,170,170)" stroke-width="0" opacity="1" d="M 85.5 23 L 87.5 26 L 85.5 23 Z "></path><path fill="rgb(170,170,170)" stroke="rgb(170,170,170)" stroke-width="0" opacity="1" d="M 395.5 23 L 396.5 25 L 395.5 23 Z "></path><path fill="rgb(170,170,170)" stroke="rgb(170,170,170)" stroke-width="0" opacity="1" d="M 18.5 24 L 12.5 31 L 18.5 24 Z "></path><path fill="rgb(170,170,170)" stroke="rgb(170,170,170)" stroke-width="0" opacity="1" d="M 548.5 26 L 550.5 29 L 548.5 26 Z "></path><path fill="rgb(170,170,170)" stroke="rgb(170,170,170)" stroke-width="0" opacity="1" d="M 91.5 29 L 93.5 32 L 91.5 29 Z "></path><path fill="rgb(170,170,170)" stroke="rgb(170,170,170)" stroke-width="0" opacity="1" d="M 249.5 29 L 250 101.5 L 249 101.5 L 249.5 29 Z "></path><path fill="rgb(170,170,170)" stroke="rgb(170,170,170)" stroke-width="0" opacity="1" d="M 402.5 30 L 403.5 32 L 402.5 30 Z "></path><path fill="rgb(170,170,170)" stroke="rgb(170,170,170)" stroke-width="0" opacity="1" d="M 409.5 37 L 410.5 39 L 409.5 37 Z "></path><path fill="rgb(170,170,170)" stroke="rgb(170,170,170)" stroke-width="0" opacity="1" d="M 412.5 41 L 413 88.5 L 412 88.5 L 412.5 41 Z "></path><path fill="rgb(170,170,170)" stroke="rgb(170,170,170)" stroke-width="0" opacity="1" d="M 153.5 43 L 152.5 45 L 153.5 43 Z "></path><path fill="rgb(170,170,170)" stroke="rgb(170,170,170)" stroke-width="0" opacity="1" d="M 148.5 50 L 147.5 52 L 148.5 50 Z "></path><path fill="rgb(170,170,170)" stroke="rgb(170,170,170)" stroke-width="0" opacity="1" d="M 0.5 55 L 1 57.5 L 0 57.5 L 0.5 55 Z "></path><path fill="rgb(170,170,170)" stroke="rgb(170,170,170)" stroke-width="0" opacity="1" d="M 0.5 72 L 1 74.5 L 0 74.5 L 0.5 72 Z "></path><path fill="rgb(170,170,170)" stroke="rgb(170,170,170)" stroke-width="0" opacity="1" d="M 144.5 74 L 145.5 76 L 144.5 74 Z "></path><path fill="rgb(170,170,170)" stroke="rgb(170,170,170)" stroke-width="0" opacity="1" d="M 149.5 81 L 150.5 83 L 149.5 81 Z "></path><path fill="rgb(170,170,170)" stroke="rgb(170,170,170)" stroke-width="0" opacity="1" d="M 411.5 90 L 378.5 124 L 411.5 90 Z "></path><path fill="rgb(170,170,170)" stroke="rgb(170,170,170)" stroke-width="0" opacity="1" d="M 157.5 92 L 158.5 94 L 157.5 92 Z "></path><path fill="rgb(170,170,170)" stroke="rgb(170,170,170)" stroke-width="0" opacity="1" d="M 559.5 94 L 558.5 96 L 559.5 94 Z "></path><path fill="rgb(170,170,170)" stroke="rgb(170,170,170)" stroke-width="0" opacity="1" d="M 94.5 97 L 93.5 99 L 94.5 97 Z "></path><path fill="rgb(170,170,170)" stroke="rgb(170,170,170)" stroke-width="0" opacity="1" d="M 554.5 98 L 553.5 100 L 554.5 98 Z "></path><path fill="rgb(170,170,170)" stroke="rgb(170,170,170)" stroke-width="0" opacity="1" d="M 12.5 99 L 13.5 101 L 12.5 99 Z "></path><path fill="rgb(170,170,170)" stroke="rgb(170,170,170)" stroke-width="0" opacity="1" d="M 303.5 99 L 304.5 101 L 303.5 99 Z "></path><path fill="rgb(170,170,170)" stroke="rgb(170,170,170)" stroke-width="0" opacity="1" d="M 17.5 104 L 19.5 107 L 17.5 104 Z "></path><path fill="rgb(170,170,170)" stroke="rgb(170,170,170)" stroke-width="0" opacity="1" d="M 86.5 105 L 85.5 107 L 86.5 105 Z "></path><path fill="rgb(170,170,170)" stroke="rgb(170,170,170)" stroke-width="0" opacity="1" d="M 310.5 106 L 311.5 108 L 310.5 106 Z "></path><path fill="rgb(170,170,170)" stroke="rgb(170,170,170)" stroke-width="0" opacity="1" d="M 544.5 106 L 543.5 108 L 544.5 106 Z "></path><path fill="rgb(170,170,170)" stroke="rgb(170,170,170)" stroke-width="0" opacity="1" d="M 539.5 110 L 538.5 112 L 539.5 110 Z "></path><path fill="rgb(170,170,170)" stroke="rgb(170,170,170)" stroke-width="0" opacity="1" d="M 317.5 113 L 318.5 115 L 317.5 113 Z "></path><path fill="rgb(170,170,170)" stroke="rgb(170,170,170)" stroke-width="0" opacity="1" d="M 173.5 114 L 174.5 116 L 173.5 114 Z "></path><path fill="rgb(170,170,170)" stroke="rgb(170,170,170)" stroke-width="0" opacity="1" d="M 534.5 114 L 533.5 116 L 534.5 114 Z "></path><path fill="rgb(170,170,170)" stroke="rgb(170,170,170)" stroke-width="0" opacity="1" d="M 457.5 116 L 458.5 118 L 457.5 116 Z "></path><path fill="rgb(170,170,170)" stroke="rgb(170,170,170)" stroke-width="0" opacity="1" d="M 322.5 118 L 325.5 122 L 322.5 118 Z "></path><path fill="rgb(170,170,170)" stroke="rgb(170,170,170)" stroke-width="0" opacity="1" d="M 529.5 118 L 528.5 120 L 529.5 118 Z "></path><path fill="rgb(170,170,170)" stroke="rgb(170,170,170)" stroke-width="0" opacity="1" d="M 178.5 121 L 179.5 123 L 178.5 121 Z "></path><path fill="rgb(170,170,170)" stroke="rgb(170,170,170)" stroke-width="0" opacity="1" d="M 524.5 122 L 523.5 124 L 524.5 122 Z "></path><path fill="rgb(170,170,170)" stroke="rgb(170,170,170)" stroke-width="0" opacity="1" d="M 329.5 124 L 377 124.5 L 329.5 125 L 329.5 124 Z "></path><path fill="rgb(170,170,170)" stroke="rgb(170,170,170)" stroke-width="0" opacity="1" d="M 519.5 126 L 518.5 128 L 519.5 126 Z "></path><path fill="rgb(170,170,170)" stroke="rgb(170,170,170)" stroke-width="0" opacity="1" d="M 469.5 213 L 469 214.5 L 468.5 356 L 468 214.5 L 469.5 213 Z "></path><path fill="rgb(255,255,255)" stroke="rgb(255,255,255)" stroke-width="0" opacity="1" d="M 0 0 L 511 0.5 L 458 12 L 433 65.5 L 458.5 118 L 505.5 128 L 514.5 131 L 559.5 95 L 560 356 L 547.5 356 L 547 355.5 L 547 215.5 L 547.5 214 L 470.5 214 L 469.5 213 L 468 214.5 L 468 356 L 0 356 L 0 75.5 L 1 75.5 L 3 84.5 L 7 92.5 L 19.5 107 L 39.5 117 L 44.5 118 L 60.5 118 L 71.5 115 L 81.5 110 L 95 97.5 L 102 85.5 L 105 75.5 L 105 54.5 L 97 35.5 L 85.5 23 L 68.5 14 L 60.5 12 L 44.5 12 L 25.5 19 L 12 30.5 L 3 45.5 L 0.5 55 L 0 0 Z M 330 5 L 294 41 L 294 91 L 297 93 L 297 94 L 299 94 L 299 96 L 301 96 L 301 98 L 303 98 L 305 101 L 306 101 L 306 103 L 308 103 L 308 105 L 310 105 L 312 108 L 313 108 L 313 110 L 315 110 L 315 112 L 317 112 L 319 115 L 320 115 L 320 117 L 322 117 L 326 122 L 327 122 L 327 124 L 330 125 L 377 125 L 379 124 L 413 89 L 413 42 L 410 37 L 408 37 L 408 35 L 406 35 L 406 33 L 404 33 L 403 30 L 401 30 L 401 28 L 399 28 L 399 26 L 397 26 L 396 23 L 394 23 L 394 21 L 392 21 L 392 19 L 390 19 L 389 16 L 387 16 L 387 14 L 385 14 L 385 12 L 383 12 L 383 11 L 377 5 L 330 5 Z M 181 6 L 138 65 L 181 124 L 248 102 L 250 102 L 250 30 L 244 26 L 241 26 L 238 24 L 235 24 L 181 6 Z M 259 222 L 153 284 L 151 284 L 151 286 L 257 346 L 259 348 L 259 222 Z M 352 223 L 301 253 L 299 254 L 299 317 L 352 347 L 357 346 L 406 317 L 407 317 L 407 253 L 359 225 L 352 223 Z M 10 237 L 10 333 L 105 333 L 105 237 L 10 237 Z "></path><path fill="rgb(255,255,255)" stroke="rgb(255,255,255)" stroke-width="0" opacity="1" d="M 516.5 0 L 560 0 L 560 35 L 518.5 3 L 516.5 0 Z "></path></svg>