<svg id="Layer_1" data-name="Layer 1" xmlns="http://www.w3.org/2000/svg" xmlns:xlink="http://www.w3.org/1999/xlink" viewBox="0 0 310 120"><defs><style>.cls-1{fill:none;}.cls-2{font-size:28px;font-family:AndaleMono, Andale Mono;letter-spacing:0.5em;}.cls-3{clip-path:url(#clip-path);}.cls-4{fill:url(#linear-gradient);}.cls-5{fill:url(#linear-gradient-2);}.cls-6{fill:url(#linear-gradient-3);}</style><clipPath id="clip-path"><rect class="cls-1" x="41" y="9" width="230" height="92"/></clipPath><linearGradient id="linear-gradient" x1="0.23" y1="44.8" x2="310" y2="44.8" gradientUnits="userSpaceOnUse"><stop offset="0" stop-color="lime"/><stop offset="1" stop-color="#f0f"/></linearGradient><linearGradient id="linear-gradient-2" x1="0.23" y1="44.06" x2="310" y2="44.06" gradientUnits="userSpaceOnUse"><stop offset="0" stop-color="red"/><stop offset="1" stop-color="aqua"/></linearGradient><linearGradient id="linear-gradient-3" x1="0.23" y1="35.37" x2="310" y2="35.37" gradientUnits="userSpaceOnUse"><stop offset="0" stop-color="blue"/><stop offset="1" stop-color="#ff0"/></linearGradient></defs><title>manifold</title><text class="cls-2" transform="translate(39.47 100.33) rotate(0.15)">MANIFOLD</text><g class="cls-3"><path class="cls-4" d="M.23,56.52V55.23h58.4c6.31,0,12.68.34,18.79-1.55A46.8,46.8,0,0,0,91.57,46c3.64-2.72,7-5.83,10.93-8.18a17,17,0,0,1,9-2.57c1.76,0,3.52,0,5.28,0h18.39c2.77,0,6.18-.59,8.65.9,3.63,2.2,5.84,6.13,9.26,8.59,2.53,1.81,5.55,1.33,8.5,1.33h26.82c4.5,0,9,.16,13.54,0,6.14-.21,8.73-7.74,13.78-10.25,2-1,4.5-.57,6.64-.57H310v4.12H222.37c-2.17,0-4.52.26-6.64-.33-4.93-1.39-8.42-5.81-13.78-5.92-4.51-.08-9,0-13.54,0H161.59c-2.85,0-5.8-.33-8.5.77-3.25,1.33-5.93,3.81-9.26,5-2.7.93-5.84.52-8.65.52H116.79c-5,0-9.64-.19-14.29,2.21-3.85,2-7.29,4.68-10.92,7a50.26,50.26,0,0,1-14.16,6.6c-6.15,1.63-12.49,1.33-18.79,1.33H.23Z"/><path class="cls-5" d="M.23,55.67V54.38h58.4c6.32,0,12.7.36,18.79-1.7a45.94,45.94,0,0,0,14.15-8.4c3.64-3,7-6.37,10.93-9a15.86,15.86,0,0,1,9-2.82h28c1.95,0,3,.24,4.31,1.84,4.16,5.16,5.53,12.11,9.26,17.56,1.17,1.71,2.18,2.67,4.26,2.73,1.41,0,2.83,0,4.24,0h26.82c4.48,0,9.08.31,13.54,0,3.51-.25,5.14-4.58,6.49-7.34,1.25-2.55,2.38-5.16,3.64-7.71a22.14,22.14,0,0,1,3.65-5.9c1.72-1.74,4.39-1.18,6.64-1.18H310v4.12H222.37a30.08,30.08,0,0,0-6.64.27c-4.84,1.11-8.64,4.71-13.78,4.79-4.51.07-9,0-13.54,0H161.59c-2.84,0-5.76.28-8.5-.62-3.2-1.06-6-3.1-9.26-4-2.75-.77-5.82-.42-8.65-.42H116.79c-1.76,0-3.52,0-5.28,0a17.72,17.72,0,0,0-9,2.45c-3.89,2.22-7.3,5.2-10.93,7.79a48.05,48.05,0,0,1-14.14,7.32c-6.13,1.8-12.49,1.48-18.79,1.48H.23Z"/><path class="cls-6" d="M.23,58.62V57.33h58.4c6.29,0,12.62.27,18.79-1.19a53.78,53.78,0,0,0,14.2-5.92c3.65-2.09,7.13-4.52,10.94-6.3,4.65-2.15,9.26-2,14.23-2h18.39c2.87,0,6.4.73,8.65-1.4,4-3.78,5.64-9.41,9.26-13.47A5.22,5.22,0,0,1,157.35,25c1.41,0,2.83,0,4.24,0h26.82c4.49,0,9.06-.24,13.54,0,3.19.17,4.92,3.16,6.49,5.63,2.18,3.41,4,7.9,7.29,10.44,1.81,1.4,4.48.89,6.64.89H310v4.12H222.89c-2.1,0-5.19.68-6.66-1.09-1.88-2.26-2.76-5.59-3.67-8.32-1.31-3.91-2.42-7.89-3.65-11.83A59.18,59.18,0,0,0,205.29,15c-.69-1.32-1.37-2.59-2.89-2.92a18.83,18.83,0,0,0-3.6,0H157.66c-2.43,0-3.24,1.37-4.26,3.52-4.14,8.64-5.1,18.52-9.29,27.12-1.07,2.19-1.88,3.39-4.32,3.39H117c-4.78,0-9.41-.21-14,1.46-3.77,1.37-7.29,3.36-10.91,5.08A63,63,0,0,1,78,57.52c-9.61,2-20.07,1.1-29.87,1.1Z"/></g></svg>