<?xml version="1.0" encoding="utf-8"?>
<!-- Generator: Adobe Illustrator 24.0.2, SVG Export Plug-In . SVG Version: 6.00 Build 0)  -->
<svg version="1.1" id="Layer_1" xmlns="http://www.w3.org/2000/svg" xmlns:xlink="http://www.w3.org/1999/xlink" x="0px" y="0px"
	 viewBox="0 0 310 120" style="enable-background:new 0 0 310 120;" xml:space="preserve">
<style type="text/css">
	.st0{enable-background:new    ;}
	.st1{clip-path:url(#SVGID_2_);}
	.st2{fill:url(#SVGID_3_);}
	.st3{fill:url(#SVGID_4_);}
	.st4{fill:url(#SVGID_5_);}
</style>
<title>manifold</title>
<g class="st0">
	<path d="M54.1,100.4l-2.2,0l0-16.5L49,91.7l-2.1,0L44,83.8l0,16.5l-2.2,0L41.9,81l2.9,0l3.2,8.8l3.2-8.8l2.9,0L54.1,100.4z"/>
	<path d="M86.4,100.5l-2.4,0l-2.1-6.8l-6.3,0l-2.2,6.7l-2.3,0l6.4-19.3l2.7,0L86.4,100.5z M81.2,91.7l-2.5-8l-2.5,8L81.2,91.7z"/>
	<path d="M115.3,100.5l-2.5,0l-6.9-15.2l0,15.2l-2.2,0l0.1-19.3l2.5,0l6.9,15.1l0-15.1l2.2,0L115.3,100.5z"/>
	<path d="M144.6,100.6l-8.8,0l0-2l3.3,0l0-15.4l-3.3,0l0-2l8.8,0l0,2l-3.2,0l0,15.4l3.2,0L144.6,100.6z"/>
	<path d="M176.5,83.4l-8,0l0,6.3l7.3,0l0,2l-7.3,0l0,9.1l-2.2,0l0-19.3l10.2,0L176.5,83.4z"/>
	<path d="M201.9,81.1c2.2,0,3.8,0.9,4.9,2.6c1.1,1.7,1.7,4.2,1.7,7.5c0,3.2-0.6,5.7-1.7,7.4s-2.8,2.6-5,2.6c-2.2,0-3.8-0.9-4.9-2.6
		c-1.1-1.7-1.7-4.2-1.7-7.4c0-3.3,0.6-5.7,1.7-7.4C198.1,81.9,199.7,81.1,201.9,81.1z M201.9,99.2c2.8,0,4.3-2.7,4.3-8
		c0-5.4-1.4-8.1-4.2-8.1c-1.4,0-2.4,0.7-3.2,2.1c-0.7,1.4-1.1,3.4-1.1,6c0,2.6,0.3,4.6,1.1,6S200.5,99.2,201.9,99.2z"/>
	<path d="M238.3,100.8l-10.5,0l0-19.3l2.2,0l0,17.3l8.3,0L238.3,100.8z"/>
	<path d="M258,81.6l3.8,0c2.5,0,4.5,0.9,6.1,2.6c1.5,1.7,2.3,4.1,2.3,7.1c0,3.1-0.8,5.4-2.3,7.1c-1.5,1.7-3.5,2.5-5.9,2.5l-3.9,0
		L258,81.6z M260.2,99l1.6,0c1.8,0,3.3-0.7,4.4-2c1.1-1.4,1.6-3.2,1.6-5.6c0-2.4-0.5-4.3-1.6-5.6s-2.5-2.1-4.3-2.1l-1.6,0L260.2,99z
		"/>
</g>
<g>
	<defs>
		<rect id="SVGID_1_" x="41" y="9" width="230" height="92"/>
	</defs>
	<clipPath id="SVGID_2_">
		<use xlink:href="#SVGID_1_"  style="overflow:visible;"/>
	</clipPath>
	<g class="st1">
		
			<linearGradient id="SVGID_3_" gradientUnits="userSpaceOnUse" x1="0.23" y1="75.0673" x2="310" y2="75.0673" gradientTransform="matrix(1 0 0 -1 0 119.89)">
			<stop  offset="0" style="stop-color:#00FF00"/>
			<stop  offset="1" style="stop-color:#FF00FF"/>
		</linearGradient>
		<path class="st2" d="M0.2,56.5v-1.3h58.4c6.3,0,12.7,0.3,18.8-1.5c5.1-1.7,9.9-4.3,14.2-7.7c3.6-2.7,7-5.8,10.9-8.2
			c2.7-1.7,5.8-2.6,9-2.6c1.8,0,3.5,0,5.3,0h18.4c2.8,0,6.2-0.6,8.6,0.9c3.6,2.2,5.8,6.1,9.3,8.6c2.5,1.8,5.6,1.3,8.5,1.3h26.8
			c4.5,0,9,0.2,13.5,0c6.1-0.2,8.7-7.7,13.8-10.3c2-1,4.5-0.6,6.6-0.6H310v4.1h-87.6c-2.2,0-4.5,0.3-6.6-0.3
			c-4.9-1.4-8.4-5.8-13.8-5.9c-4.5-0.1-9,0-13.5,0h-26.8c-2.9,0-5.8-0.3-8.5,0.8c-3.3,1.3-5.9,3.8-9.3,5c-2.7,0.9-5.8,0.5-8.6,0.5
			h-18.4c-5,0-9.6-0.2-14.3,2.2c-3.8,2-7.3,4.7-10.9,7c-4.3,2.9-9.1,5.2-14.2,6.6c-6.2,1.6-12.5,1.3-18.8,1.3L0.2,56.5L0.2,56.5z"/>
		
			<linearGradient id="SVGID_4_" gradientUnits="userSpaceOnUse" x1="0.23" y1="75.8679" x2="310" y2="75.8679" gradientTransform="matrix(1 0 0 -1 0 119.89)">
			<stop  offset="0" style="stop-color:#FF0000"/>
			<stop  offset="1" style="stop-color:#00FFFF"/>
		</linearGradient>
		<path class="st3" d="M0.2,55.7v-1.3h58.4c6.3,0,12.7,0.4,18.8-1.7c5.2-1.9,10-4.8,14.2-8.4c3.6-3,7-6.4,10.9-9
			c2.6-1.8,5.8-2.8,9-2.8h28c1.9,0,3,0.2,4.3,1.8c4.2,5.2,5.5,12.1,9.3,17.6c1.2,1.7,2.2,2.7,4.3,2.7c1.4,0,2.8,0,4.2,0h26.8
			c4.5,0,9.1,0.3,13.5,0c3.5-0.3,5.1-4.6,6.5-7.3c1.3-2.5,2.4-5.2,3.6-7.7c0.9-2.1,2.1-4.1,3.6-5.9c1.7-1.7,4.4-1.2,6.6-1.2H310v4.1
			h-87.6c-2.2-0.2-4.4-0.1-6.6,0.3c-4.8,1.1-8.6,4.7-13.8,4.8c-4.5,0.1-9,0-13.5,0h-26.8c-2.8,0-5.8,0.3-8.5-0.6
			c-3.2-1.1-6-3.1-9.3-4c-2.8-0.8-5.8-0.4-8.6-0.4h-18.4c-1.8,0-3.5,0-5.3,0c-3.2,0-6.3,0.8-9,2.5c-3.9,2.2-7.3,5.2-10.9,7.8
			c-4.3,3.2-9.1,5.7-14.1,7.3C71.3,56,65,55.6,58.7,55.6L0.2,55.7L0.2,55.7z"/>
		
			<linearGradient id="SVGID_5_" gradientUnits="userSpaceOnUse" x1="0.23" y1="84.4821" x2="310" y2="84.4821" gradientTransform="matrix(1 0 0 -1 0 119.89)">
			<stop  offset="0" style="stop-color:#0000FF"/>
			<stop  offset="1" style="stop-color:#FFFF00"/>
		</linearGradient>
		<path class="st4" d="M0.2,58.6v-1.3h58.4c6.3,0,12.6,0.3,18.8-1.2c5-1.3,9.8-3.3,14.2-5.9c3.7-2.1,7.1-4.5,10.9-6.3
			c4.7-2.2,9.3-2,14.2-2h18.4c2.9,0,6.4,0.7,8.6-1.4c4-3.8,5.6-9.4,9.3-13.5c1-1.3,2.6-2.1,4.3-2c1.4,0,2.8,0,4.2,0h26.8
			c4.5,0,9.1-0.2,13.5,0c3.2,0.2,4.9,3.2,6.5,5.6c2.2,3.4,4,7.9,7.3,10.4c1.8,1.4,4.5,0.9,6.6,0.9H310v4.1h-87.1
			c-2.1,0-5.2,0.7-6.7-1.1c-1.9-2.3-2.8-5.6-3.7-8.3c-1.3-3.9-2.4-7.9-3.6-11.8c-0.9-3.4-2.1-6.7-3.6-9.8c-0.7-1.3-1.4-2.6-2.9-2.9
			c-1.2-0.1-2.4-0.1-3.6,0h-41.1c-2.4,0-3.2,1.4-4.3,3.5c-4.1,8.6-5.1,18.5-9.3,27.1c-1.1,2.2-1.9,3.4-4.3,3.4H117
			c-4.8,0-9.4-0.2-14,1.5c-3.8,1.4-7.3,3.4-10.9,5.1c-4.5,2.2-9.2,3.8-14.1,4.9c-9.6,2-20.1,1.1-29.9,1.1H0.2z"/>
	</g>
</g>
</svg>
