<?xml version="1.0" encoding="utf-8"?>
<!-- Generator: Adobe Illustrator 21.1.0, SVG Export Plug-In . SVG Version: 6.00 Build 0)  -->
<svg version="1.1" id="Layer_1" xmlns="http://www.w3.org/2000/svg" xmlns:xlink="http://www.w3.org/1999/xlink" x="0px" y="0px"
	 viewBox="0 0 310 120" style="enable-background:new 0 0 310 120;" xml:space="preserve">
<g>
	<path d="M60.4,24.7c-0.1,0.2-0.4,0.4-0.7,0.5c-4.5,6.8-12,14-19.4,19.3c3.7,3,7.4,6.7,9.8,9.4l-2.9,2.5c-5-5.9-14.5-13.8-22.6-18.6
		l2.3-2.4c3.4,1.9,7.2,4.5,10.7,7.1c6.5-4.6,13.1-10.8,16.8-16.4H19.2v-3.3H57l0.6-0.3L60.4,24.7z"/>
	<path d="M107.4,50.1v3.3H67.8v-3.3H107.4z M102.7,23.7v3.3H72.9v-3.3H102.7z"/>
	<path d="M127.3,37.7c-2.2,5.6-5.4,10.7-9.1,14.3l-2.8-1.8c3.5-3.3,6.8-7.9,8.7-13.6L127.3,37.7z M137.6,30.2v22.9
		c0,5.4-4.2,5.3-11.4,5.2c-0.2-0.9-0.6-2.2-1.1-3.2c1.1,0,6.5,0,7,0c1.3,0,2-0.9,2-2V30.2h-16.3V27h16.3v-9.8l4.6,0.2
		c0,0.5-0.4,0.9-1.1,0.9V27h16.2v3.2H137.6z M146.2,36.3c3.5,3.9,7.5,9.5,10.1,14l-3.1,1.8c-2.4-4.4-6.6-10.6-9.8-14.2L146.2,36.3z"
		/>
	<path d="M163.1,35.2h40.1v3.4h-38.3c-0.3,0.5-0.9,0.8-1.5,0.9L163.1,35.2z"/>
	<path d="M221.6,24.4c0,0.4-0.5,0.7-1.1,0.8c-0.3,12.9-1.3,24.7-8.7,33.3c-0.8-0.6-1.9-1.3-2.9-1.8c7.2-7.8,8-19.8,8.2-32.7
		L221.6,24.4z M234,52c8-3.9,13.2-10.9,16-19.3c0.7,0.6,2.2,1.4,3,1.9c-3.4,9.7-9.4,16.8-19.6,21.7c-0.1,0.4-0.5,0.8-0.8,1l-2.5-3.2
		l0.5-0.7V18.1l4.5,0.2c0,0.4-0.4,0.8-1.1,0.9V52z"/>
	<path d="M286.7,42.4c-4.9-2.6-11.6-5.8-16.8-7.8v24h-3.6V16.8l4.8,0.3c0,0.5-0.4,0.9-1.2,1v14.1l0.7-1.1c5.6,2.1,13.1,5.4,18,8
		L286.7,42.4z M281.6,19.8c2.2,1.8,5.1,4.8,6.6,7.1l-1.8,1.5c-1.4-2.1-4.4-5.3-6.5-7L281.6,19.8z M288.1,15.7c2.3,1.9,5.1,4.9,6.6,7
		l-1.7,1.5c-1.5-2.1-4.4-5.2-6.6-7L288.1,15.7z"/>
</g>
<g>
	<path d="M54.1,94.4l-2.2,0l0-16.5l-2.9,7.9l-2.1,0l-2.9-7.9l0,16.5l-2.2,0l0-19.3l2.9,0l3.2,8.8l3.2-8.8l2.9,0L54.1,94.4z"/>
	<path d="M86.4,94.5l-2.4,0l-2.1-6.8l-6.3,0l-2.2,6.7l-2.3,0l6.4-19.3l2.7,0L86.4,94.5z M81.3,85.8l-2.5-8l-2.5,8L81.3,85.8z"/>
	<path d="M115.3,94.6l-2.5,0L106,79.3l0,15.2l-2.2,0l0-19.3l2.5,0l6.9,15.1l0-15.1l2.2,0L115.3,94.6z"/>
	<path d="M144.6,94.6l-8.8,0l0-2l3.3,0l0-15.4l-3.3,0l0-2l8.8,0l0,2l-3.2,0l0,15.4l3.2,0L144.6,94.6z"/>
	<path d="M176.5,77.4l-8,0l0,6.3l7.3,0l0,2l-7.3,0l0,9.1l-2.2,0l0-19.3l10.2,0L176.5,77.4z"/>
	<path d="M202,75.1c2.2,0,3.8,0.9,4.9,2.6c1.1,1.7,1.7,4.2,1.7,7.5c0,3.2-0.6,5.7-1.7,7.4c-1.1,1.7-2.8,2.6-5,2.6
		c-2.2,0-3.8-0.9-4.9-2.6c-1.1-1.7-1.7-4.2-1.7-7.4c0-3.3,0.6-5.7,1.7-7.4C198.1,76,199.8,75.1,202,75.1z M201.9,93.2
		c2.8,0,4.3-2.7,4.3-8c0-5.4-1.4-8.1-4.2-8.1c-1.4,0-2.4,0.7-3.2,2.1c-0.7,1.4-1.1,3.4-1.1,6c0,2.6,0.3,4.6,1.1,6
		C199.5,92.5,200.5,93.2,201.9,93.2z"/>
	<path d="M238.3,94.9l-10.5,0l0-19.3l2.2,0l0,17.3l8.3,0L238.3,94.9z"/>
	<path d="M258,75.7l3.8,0c2.5,0,4.5,0.9,6.1,2.6c1.5,1.7,2.3,4.1,2.3,7.1c0,3.1-0.8,5.4-2.3,7.1c-1.5,1.7-3.5,2.5-5.9,2.5l-3.9,0
		L258,75.7z M260.2,93l1.6,0c1.8,0,3.3-0.7,4.4-2c1.1-1.4,1.6-3.2,1.6-5.6c0-2.4-0.5-4.3-1.6-5.6s-2.5-2.1-4.3-2.1l-1.6,0L260.2,93z
		"/>
</g>
</svg>
